<svg width="394" height="138" viewBox="0 0 394 138" fill="none" xmlns="http://www.w3.org/2000/svg">
<path d="M172.243 95.6C169.476 95.6 166.793 95.2333 164.193 94.5C161.626 93.7333 159.559 92.75 157.993 91.55L160.743 85.45C162.243 86.55 164.026 87.4333 166.093 88.1C168.159 88.7667 170.226 89.1 172.293 89.1C174.593 89.1 176.293 88.7667 177.393 88.1C178.493 87.4 179.043 86.4833 179.043 85.35C179.043 84.5167 178.709 83.8333 178.043 83.3C177.409 82.7333 176.576 82.2833 175.543 81.95C174.543 81.6167 173.176 81.25 171.443 80.85C168.776 80.2167 166.593 79.5833 164.893 78.95C163.193 78.3167 161.726 77.3 160.493 75.9C159.293 74.5 158.693 72.6333 158.693 70.3C158.693 68.2667 159.243 66.4333 160.343 64.8C161.443 63.1333 163.093 61.8167 165.293 60.85C167.526 59.8833 170.243 59.4 173.443 59.4C175.676 59.4 177.859 59.6667 179.993 60.2C182.126 60.7333 183.993 61.5 185.593 62.5L183.093 68.65C179.859 66.8167 176.626 65.9 173.393 65.9C171.126 65.9 169.443 66.2667 168.343 67C167.276 67.7333 166.743 68.7 166.743 69.9C166.743 71.1 167.359 72 168.593 72.6C169.859 73.1667 171.776 73.7333 174.343 74.3C177.009 74.9333 179.193 75.5667 180.893 76.2C182.593 76.8333 184.043 77.8333 185.243 79.2C186.476 80.5667 187.093 82.4167 187.093 84.75C187.093 86.75 186.526 88.5833 185.393 90.25C184.293 91.8833 182.626 93.1833 180.393 94.15C178.159 95.1167 175.443 95.6 172.243 95.6ZM210.778 60C213.878 60 216.561 60.5167 218.828 61.55C221.128 62.5833 222.894 64.05 224.128 65.95C225.361 67.85 225.978 70.1 225.978 72.7C225.978 75.2667 225.361 77.5167 224.128 79.45C222.894 81.35 221.128 82.8167 218.828 83.85C216.561 84.85 213.878 85.35 210.778 85.35H203.728V95H195.628V60H210.778ZM210.328 78.75C212.761 78.75 214.611 78.2333 215.878 77.2C217.144 76.1333 217.778 74.6333 217.778 72.7C217.778 70.7333 217.144 69.2333 215.878 68.2C214.611 67.1333 212.761 66.6 210.328 66.6H203.728V78.75H210.328ZM234.76 60H242.86V88.4H260.41V95H234.76V60ZM267.936 60H276.036V95H267.936V60ZM304.092 95.6C300.526 95.6 297.292 94.8333 294.392 93.3C291.526 91.7333 289.259 89.5833 287.592 86.85C285.959 84.0833 285.142 80.9667 285.142 77.5C285.142 74.0333 285.959 70.9333 287.592 68.2C289.259 65.4333 291.526 63.2833 294.392 61.75C297.292 60.1833 300.542 59.4 304.142 59.4C307.176 59.4 309.909 59.9333 312.342 61C314.809 62.0667 316.876 63.6 318.542 65.6L313.342 70.4C310.976 67.6667 308.042 66.3 304.542 66.3C302.376 66.3 300.442 66.7833 298.742 67.75C297.042 68.6833 295.709 70 294.742 71.7C293.809 73.4 293.342 75.3333 293.342 77.5C293.342 79.6667 293.809 81.6 294.742 83.3C295.709 85 297.042 86.3333 298.742 87.3C300.442 88.2333 302.376 88.7 304.542 88.7C308.042 88.7 310.976 87.3167 313.342 84.55L318.542 89.35C316.876 91.3833 314.809 92.9333 312.342 94C309.876 95.0667 307.126 95.6 304.092 95.6ZM354.112 88.5V95H327.012V60H353.462V66.5H335.062V74.1H351.312V80.4H335.062V88.5H354.112Z" fill="#43976C"/>
<circle cx="87.0093" cy="76.4583" r="8.01447" fill="white"/>
<path d="M87.0091 71.4766L95.263 98.1193H78.7553L87.0091 71.4766Z" fill="white"/>
<mask id="mask0" mask-type="alpha" maskUnits="userSpaceOnUse" x="43" y="31" width="88" height="76">
<path d="M85.6696 31.6022C86.2979 31.2308 87.0787 31.2312 87.7066 31.6033L129.233 56.2076C130.634 57.0371 130.045 59.1841 128.418 59.1841H125.889C124.784 59.1841 123.889 60.0795 123.889 61.1841V104.845C123.889 105.949 122.993 106.845 121.889 106.845H86.6884H51.4883C50.3837 106.845 49.4883 105.949 49.4883 104.845V61.1841C49.4883 60.0795 48.5928 59.1841 47.4883 59.1841H44.852C43.2236 59.1841 42.6361 57.0352 44.0379 56.2067L85.6696 31.6022Z" fill="#C4C4C4"/>
</mask>
<g mask="url(#mask0)">
<path d="M80.8964 14.3252L134.068 45.1971V106.941L80.8964 137.813V14.3252Z" fill="url(#paint0_linear)"/>
<path d="M86.6269 20.7373L87.1544 111.138V210.825L0.567261 160.982V61.2944L86.6269 20.7373Z" fill="#1F3F8F"/>
<path d="M86.6269 20.7373L87.1544 111.138V210.825L0.567261 160.982V61.2944L86.6269 20.7373Z" fill="url(#paint1_linear)"/>
</g>
<path d="M76.1061 64.1763C75.7036 63.7838 75.7016 63.134 76.1299 62.7699C77.4301 61.6645 78.9157 60.7813 80.5243 60.1603C82.4549 59.415 84.5217 59.0633 86.5972 59.1269C88.6726 59.1905 90.7127 59.6681 92.5915 60.5301C94.1565 61.2481 95.5819 62.2202 96.8081 63.4025C97.2127 63.7927 97.17 64.441 96.7437 64.8074L95.2926 66.0547C94.8812 66.4084 94.2658 66.3657 93.868 65.9968C92.9973 65.1893 91.9978 64.5217 90.9067 64.0211C89.517 63.3835 88.008 63.0302 86.4729 62.9832C84.9377 62.9362 83.409 63.1963 81.981 63.7476C80.8592 64.1806 79.8182 64.7861 78.8968 65.5392C78.4769 65.8825 77.8601 65.8864 77.4717 65.5078L76.1061 64.1763Z" fill="white"/>
<path d="M70.3737 57.936C69.9905 57.5468 69.9891 56.9204 70.3877 56.5469C72.5857 54.4871 75.1411 52.8547 77.9269 51.7345C81.016 50.4924 84.3229 49.9062 87.6436 50.0122C90.9643 50.1182 94.2284 50.9141 97.2346 52.3508C99.9459 53.6466 102.396 55.4389 104.462 57.635C104.836 58.0329 104.796 58.658 104.389 59.0224L102.746 60.4931C102.33 60.8655 101.692 60.8234 101.305 60.4205C99.6227 58.6675 97.6422 57.2332 95.4564 56.1886C92.9665 54.9986 90.2629 54.3394 87.5124 54.2516C84.7619 54.1638 82.0229 54.6493 79.4643 55.6782C77.2185 56.5812 75.1536 57.8861 73.3664 59.528C72.9552 59.9058 72.3152 59.9078 71.9234 59.5099L70.3737 57.936Z" fill="white"/>
<rect x="76.0122" y="79.855" width="21.5921" height="16.7939" rx="1" fill="white"/>
<path d="M81.8695 84.4932H82.1195V84.2432V76.0411C82.1195 75.4448 82.2403 74.8541 82.4754 74.3027C82.7104 73.7513 83.0552 73.2498 83.4902 72.8271C83.9253 72.4043 84.4422 72.0686 85.0116 71.8395C85.581 71.6103 86.1916 71.4923 86.8083 71.4923C87.425 71.4923 88.0355 71.6103 88.6049 71.8395C89.1743 72.0686 89.6913 72.4043 90.1263 72.8271C90.5614 73.2498 90.9061 73.7513 91.1412 74.3027C91.3762 74.8541 91.4971 75.4448 91.4971 76.0411V84.6533V84.9033H91.7471H93.1393H94.4055H94.6555V84.6533V76.0411C94.6555 75.0379 94.4521 74.0446 94.0572 73.1181C93.6622 72.1917 93.0836 71.3503 92.3546 70.642C91.6256 69.9337 90.7605 69.3721 89.809 68.9892C88.8574 68.6062 87.8378 68.4092 86.8083 68.4092C85.7788 68.4092 84.7591 68.6062 83.8076 68.9892C82.8561 69.3721 81.991 69.9337 81.262 70.642C80.533 71.3503 79.9543 72.1917 79.5594 73.1181C79.1644 74.0446 78.9611 75.0379 78.9611 76.0411V84.2432V84.4932H79.2111H80.4773H81.8695Z" fill="white" stroke="white" stroke-width="0.5"/>
<defs>
<linearGradient id="paint0_linear" x1="129.512" y1="41.096" x2="116.915" y2="127.124" gradientUnits="userSpaceOnUse">
<stop stop-color="#ACFAAB"/>
<stop offset="1" stop-color="#1A744E"/>
</linearGradient>
<linearGradient id="paint1_linear" x1="74.0646" y1="27.8674" x2="70.1119" y2="115.984" gradientUnits="userSpaceOnUse">
<stop offset="0.0302064" stop-color="#96E39D"/>
<stop offset="1" stop-color="#1F7657"/>
</linearGradient>
</defs>
</svg>
