<svg width="235" height="235" viewBox="0 0 235 235" fill="none" xmlns="http://www.w3.org/2000/svg">
<rect width="235" height="235" fill="white"/>
<path d="M50.5942 192.48C48.3809 192.48 46.2342 192.187 44.1542 191.6C42.1009 190.987 40.4476 190.2 39.1942 189.24L41.3942 184.36C42.5942 185.24 44.0209 185.947 45.6742 186.48C47.3276 187.013 48.9809 187.28 50.6342 187.28C52.4742 187.28 53.8342 187.013 54.7142 186.48C55.5942 185.92 56.0342 185.187 56.0342 184.28C56.0342 183.613 55.7676 183.067 55.2342 182.64C54.7276 182.187 54.0609 181.827 53.2342 181.56C52.4342 181.293 51.3409 181 49.9542 180.68C47.8209 180.173 46.0742 179.667 44.7142 179.16C43.3542 178.653 42.1809 177.84 41.1942 176.72C40.2342 175.6 39.7542 174.107 39.7542 172.24C39.7542 170.613 40.1942 169.147 41.0742 167.84C41.9542 166.507 43.2742 165.453 45.0342 164.68C46.8209 163.907 48.9942 163.52 51.5542 163.52C53.3409 163.52 55.0876 163.733 56.7942 164.16C58.5009 164.587 59.9942 165.2 61.2742 166L59.2742 170.92C56.6876 169.453 54.1009 168.72 51.5142 168.72C49.7009 168.72 48.3542 169.013 47.4742 169.6C46.6209 170.187 46.1942 170.96 46.1942 171.92C46.1942 172.88 46.6876 173.6 47.6742 174.08C48.6876 174.533 50.2209 174.987 52.2742 175.44C54.4076 175.947 56.1542 176.453 57.5142 176.96C58.8742 177.467 60.0342 178.267 60.9942 179.36C61.9809 180.453 62.4742 181.933 62.4742 183.8C62.4742 185.4 62.0209 186.867 61.1142 188.2C60.2342 189.507 58.9009 190.547 57.1142 191.32C55.3276 192.093 53.1542 192.48 50.5942 192.48ZM81.422 164C83.902 164 86.0487 164.413 87.862 165.24C89.702 166.067 91.1154 167.24 92.102 168.76C93.0887 170.28 93.582 172.08 93.582 174.16C93.582 176.213 93.0887 178.013 92.102 179.56C91.1154 181.08 89.702 182.253 87.862 183.08C86.0487 183.88 83.902 184.28 81.422 184.28H75.782V192H69.302V164H81.422ZM81.062 179C83.0087 179 84.4887 178.587 85.502 177.76C86.5154 176.907 87.022 175.707 87.022 174.16C87.022 172.587 86.5154 171.387 85.502 170.56C84.4887 169.707 83.0087 169.28 81.062 169.28H75.782V179H81.062ZM100.608 164H107.088V186.72H121.128V192H100.608V164ZM127.149 164H133.629V192H127.149V164ZM156.074 192.48C153.221 192.48 150.634 191.867 148.314 190.64C146.021 189.387 144.207 187.667 142.874 185.48C141.567 183.267 140.914 180.773 140.914 178C140.914 175.227 141.567 172.747 142.874 170.56C144.207 168.347 146.021 166.627 148.314 165.4C150.634 164.147 153.234 163.52 156.114 163.52C158.541 163.52 160.727 163.947 162.674 164.8C164.647 165.653 166.301 166.88 167.634 168.48L163.474 172.32C161.581 170.133 159.234 169.04 156.434 169.04C154.701 169.04 153.154 169.427 151.794 170.2C150.434 170.947 149.367 172 148.594 173.36C147.847 174.72 147.474 176.267 147.474 178C147.474 179.733 147.847 181.28 148.594 182.64C149.367 184 150.434 185.067 151.794 185.84C153.154 186.587 154.701 186.96 156.434 186.96C159.234 186.96 161.581 185.853 163.474 183.64L167.634 187.48C166.301 189.107 164.647 190.347 162.674 191.2C160.701 192.053 158.501 192.48 156.074 192.48ZM196.09 186.8V192H174.41V164H195.57V169.2H180.85V175.28H193.85V180.32H180.85V186.8H196.09Z" fill="#43976C"/>
<circle cx="118.171" cy="93.8135" r="10.5454" fill="white"/>
<path d="M118.17 87.2588L129.031 122.315H107.31L118.17 87.2588Z" fill="white"/>
<mask id="mask0" mask-type="alpha" maskUnits="userSpaceOnUse" x="59" y="34" width="118" height="100">
<path d="M116.729 34.6022C117.358 34.2308 118.139 34.2312 118.767 34.6033L175.315 68.108C176.715 68.9376 176.127 71.0846 174.5 71.0846H168.696C167.592 71.0846 166.696 71.98 166.696 73.0846V131.796C166.696 132.901 165.801 133.796 164.696 133.796H117.748H70.8004C69.6959 133.796 68.8004 132.901 68.8004 131.796V73.0846C68.8004 71.98 67.905 71.0846 66.8004 71.0846H60.852C59.2236 71.0846 58.6361 68.9356 60.0379 68.1071L116.729 34.6022Z" fill="#C4C4C4"/>
</mask>
<g mask="url(#mask0)">
<path d="M110.127 12.0591L180.09 52.6803V133.923L110.127 174.544V12.0591Z" fill="url(#paint0_linear)"/>
<path d="M117.667 20.4961L118.361 139.445V270.613L4.4303 205.029V73.8611L117.667 20.4961Z" fill="#1F3F8F"/>
<path d="M117.667 20.4961L118.361 139.445V270.613L4.4303 205.029V73.8611L117.667 20.4961Z" fill="url(#paint1_linear)"/>
</g>
<path d="M103.592 77.4274C103.19 77.0349 103.188 76.3859 103.61 76.0148C105.379 74.4611 107.419 73.2257 109.638 72.3694C112.178 71.3887 114.897 70.9259 117.628 71.0096C120.359 71.0933 123.043 71.7216 125.516 72.8559C127.674 73.8461 129.631 75.2036 131.295 76.8621C131.693 77.2588 131.651 77.9064 131.225 78.2729L128.836 80.3259C128.425 80.6796 127.809 80.6379 127.419 80.2607C126.222 79.1028 124.829 78.1513 123.299 77.4493C121.47 76.6103 119.485 76.1456 117.465 76.0837C115.445 76.0218 113.433 76.3641 111.554 77.0894C109.981 77.6966 108.529 78.5613 107.26 79.6442C106.847 79.9962 106.23 79.9991 105.841 79.6204L103.592 77.4274Z" fill="white"/>
<path d="M96.0634 69.2206C95.6801 68.8314 95.6791 68.2054 96.074 67.8281C99.0164 65.0169 102.459 62.7948 106.22 61.2823C110.285 59.6478 114.636 58.8766 119.005 59.016C123.375 59.1555 127.669 60.2027 131.625 62.0931C135.286 63.8427 138.584 66.2801 141.347 69.2736C141.717 69.6751 141.677 70.2998 141.27 70.6642L138.638 73.0207C138.222 73.3931 137.583 73.3515 137.202 72.944C134.941 70.5314 132.258 68.5634 129.285 67.1429C126.009 65.5772 122.452 64.7098 118.833 64.5942C115.213 64.4787 111.609 65.1176 108.243 66.4713C105.189 67.6993 102.389 69.492 99.9844 71.7554C99.5778 72.1381 98.9374 72.1395 98.5456 71.7417L96.0634 69.2206Z" fill="white"/>
<rect x="103.701" y="98.2837" width="28.4109" height="22.0973" rx="1" fill="white"/>
<path d="M107.66 104.058V104.308H107.91H109.576H111.408H111.658V104.058V93.2654C111.658 92.47 111.819 91.6822 112.132 90.947C112.446 90.2118 112.905 89.5432 113.485 88.9798C114.065 88.4163 114.754 87.9689 115.513 87.6636C116.271 87.3583 117.085 87.201 117.906 87.201C118.728 87.201 119.541 87.3583 120.3 87.6636C121.058 87.9689 121.747 88.4163 122.327 88.9798C122.907 89.5432 123.367 90.2118 123.68 90.947C123.993 91.6822 124.155 92.47 124.155 93.2654V104.597V104.847H124.405H126.237H127.903H128.153V104.597V93.2654C128.153 91.956 127.887 90.6596 127.372 89.4503C126.856 88.241 126.101 87.1427 125.149 86.2179C124.197 85.293 123.068 84.5598 121.825 84.0597C120.582 83.5596 119.251 83.3022 117.906 83.3022C116.562 83.3022 115.23 83.5596 113.987 84.0597C112.745 84.5598 111.615 85.293 110.663 86.2179C109.712 87.1427 108.956 88.241 108.441 89.4503C107.925 90.6596 107.66 91.956 107.66 93.2654V104.058Z" fill="white" stroke="white" stroke-width="0.5"/>
<defs>
<linearGradient id="paint0_linear" x1="174.095" y1="47.284" x2="157.521" y2="160.479" gradientUnits="userSpaceOnUse">
<stop stop-color="#ACFAAB"/>
<stop offset="1" stop-color="#1A744E"/>
</linearGradient>
<linearGradient id="paint1_linear" x1="101.138" y1="29.8778" x2="95.937" y2="145.821" gradientUnits="userSpaceOnUse">
<stop offset="0.0302064" stop-color="#96E39D"/>
<stop offset="1" stop-color="#1F7657"/>
</linearGradient>
</defs>
</svg>
