<svg width="218" height="218" viewBox="0 0 218 218" fill="none" xmlns="http://www.w3.org/2000/svg">
<rect width="218" height="218" fill="white"/>
<circle cx="109.336" cy="124.897" r="17.0835" fill="white"/>
<path d="M109.335 114.279L126.929 171.07H91.7415L109.335 114.279Z" fill="white"/>
<mask id="mask0" mask-type="alpha" maskUnits="userSpaceOnUse" x="11" y="28" width="195" height="162">
<path d="M107.633 28.6022C108.261 28.2308 109.042 28.2312 109.67 28.6033L205.024 85.1001C206.424 85.9297 205.836 88.0766 204.209 88.0766H189.947C188.842 88.0766 187.947 88.9721 187.947 90.0766V187.669C187.947 188.773 187.051 189.669 185.947 189.669H108.652H31.3566C30.252 189.669 29.3566 188.773 29.3566 187.669V90.0766C29.3566 88.9721 28.4612 88.0766 27.3566 88.0766H12.852C11.2236 88.0766 10.6361 85.9277 12.0379 85.0992L107.633 28.6022Z" fill="#C4C4C4"/>
</mask>
<g mask="url(#mask0)">
<path d="M96.3055 -7.54395L209.644 58.262V189.874L96.3055 255.68V-7.54395Z" fill="url(#paint0_linear)"/>
<path d="M108.52 6.12402L109.645 198.82V411.311L-74.9224 305.066V92.5748L108.52 6.12402Z" fill="#1F3F8F"/>
<path d="M108.52 6.12402L109.645 198.82V411.311L-74.9224 305.066V92.5748L108.52 6.12402Z" fill="url(#paint1_linear)"/>
</g>
<path d="M85.2636 97.9079C84.8611 97.5154 84.8601 96.8671 85.275 96.4878C88.2463 93.7707 91.7189 91.6221 95.5122 90.1578C99.6276 88.5692 104.033 87.8195 108.457 87.955C112.881 88.0906 117.23 89.1085 121.235 90.946C124.926 92.6394 128.253 94.996 131.043 97.8891C131.433 98.2937 131.391 98.9406 130.965 99.307L126.155 103.441C125.744 103.795 125.127 103.755 124.747 103.368C122.714 101.298 120.307 99.6094 117.643 98.3872C114.681 97.0281 111.464 96.2752 108.192 96.175C104.92 96.0747 101.661 96.6292 98.6173 97.8043C95.8795 98.8612 93.3675 100.4 91.2055 102.341C90.8019 102.703 90.1839 102.705 89.7955 102.326L85.2636 97.9079Z" fill="white"/>
<path d="M73.094 84.6223C72.7108 84.2331 72.7101 83.6076 73.1006 83.2256C77.9625 78.4705 83.6944 74.7231 89.9759 72.1972C96.5605 69.5495 103.609 68.3001 110.688 68.526C117.766 68.7519 124.724 70.4484 131.132 73.5108C137.245 76.4324 142.734 80.5382 147.292 85.5942C147.658 86 147.618 86.6243 147.211 86.9887L142.024 91.6334C141.608 92.0058 140.969 91.9647 140.593 91.5518C136.844 87.4318 132.345 84.0828 127.341 81.6915C122.034 79.1549 116.271 77.7497 110.408 77.5626C104.545 77.3755 98.7068 78.4104 93.253 80.6035C88.1117 82.6708 83.415 85.7261 79.4189 89.5985C79.0179 89.987 78.377 89.9879 77.9853 89.5901L73.094 84.6223Z" fill="white"/>
<rect x="85.8946" y="132.139" width="46.0253" height="35.7975" rx="1" fill="white"/>
<path d="M92.4633 141.493V141.743H92.7133H95.4124H98.38H98.63V141.493V124.009C98.63 122.7 98.8954 121.403 99.4113 120.193C99.9272 118.982 100.684 117.882 101.638 116.955C102.592 116.028 103.725 115.293 104.972 114.791C106.22 114.288 107.557 114.03 108.907 114.03C110.258 114.03 111.595 114.288 112.843 114.791C114.09 115.293 115.223 116.028 116.177 116.955C117.131 117.882 117.888 118.982 118.404 120.193C118.919 121.403 119.185 122.7 119.185 124.009V142.367V142.617H119.435H122.403H125.102H125.352V142.367V124.009C125.352 121.909 124.926 119.829 124.099 117.889C123.272 115.95 122.06 114.187 120.533 112.703C119.005 111.219 117.193 110.043 115.198 109.24C113.203 108.437 111.066 108.024 108.907 108.024C106.749 108.024 104.611 108.437 102.617 109.24C100.622 110.043 98.8096 111.219 97.2823 112.703C95.755 114.187 94.5431 115.95 93.7161 117.889C92.8891 119.829 92.4633 121.909 92.4633 124.009V141.493Z" fill="white" stroke="white" stroke-width="0.5"/>
<defs>
<linearGradient id="paint0_linear" x1="199.933" y1="49.5201" x2="173.083" y2="232.895" gradientUnits="userSpaceOnUse">
<stop stop-color="#ACFAAB"/>
<stop offset="1" stop-color="#1A744E"/>
</linearGradient>
<linearGradient id="paint1_linear" x1="81.7429" y1="21.3223" x2="73.3175" y2="209.149" gradientUnits="userSpaceOnUse">
<stop offset="0.0302064" stop-color="#96E39D"/>
<stop offset="1" stop-color="#1F7657"/>
</linearGradient>
</defs>
</svg>
